<svg id="ehpR8L3NInd1" xmlns="http://www.w3.org/2000/svg" xmlns:xlink="http://www.w3.org/1999/xlink" viewBox="0 0 1024 1024" shape-rendering="geometricPrecision" text-rendering="geometricPrecision" project-id="8176ac97f62a42a9ac6cd113397df5f3" export-id="f9b93244b9c845d8ad93dc2e162e98d6" cached="false"><ellipse rx="512" ry="512" transform="translate(512 512)" stroke-width="0"/><ellipse rx="275" ry="275" transform="matrix(1.759454 0 0 1.760399 512 512)" fill="#138ded" stroke-width="0"/><path d="M275.113133,523.085276h127.31848m2.948045-.006232l35.658278,76.111997m.005149-.009201l68.723053-226.78553m0,0l86.664677,287.563326m0,0l44.392489-136.87436m0,0h110.783977" transform="matrix(1.453457 0 0 1.545344-232.786783-281.494564)" fill="none" stroke="#000" stroke-width="70" stroke-linecap="round" stroke-linejoin="round"/><path d="M275.113133,523.085276h127.31848m2.948045-.006232l35.658278,76.111997m.005149-.009201l68.723053-226.78553m0,0l86.664677,287.563326m0,0l44.392489-136.87436m0,0h110.783977" transform="matrix(1.453457 0 0 1.545344-232.786783-281.494564)" fill="none" stroke="#fff" stroke-width="30" stroke-linecap="round" stroke-linejoin="round"/></svg>
